Patient4_TMGait_0pt6_01_right_35_EMG.mot
version=1
nRows=20
nColumns=33
inDegrees=no
endheader
time	1LAddLong	2LGlutMax	3LGlutMed	4LIliopsoas	5LSemiMemb	6LBicFemLong	7LRecFem	8LVastMed	9LVastLat	10LGasMed	11LTibAnt	12lTibPost	13LPeroneusLong	14LSol	15LExtDigLong	16LFlexDigLong	17RAddLong	18RGlutMax	19RGlutMed	20RIliopsoas	21RSemiMemb	22RBicFemLong	23RRecFem	24RVastMed	25RVastLat	26RGasMed	27RTibAnt	28RTibPost	29RPeroneusLong	30RSol	31RExtDigLong	32RFlexDigLong
41.99	-0.007477	-0.20523	-0.12955	0.018616	-0.012512	0.054779	0.11704	-0.008087	0.11108	0.03891	0.053711	0.003967	-0.58136	0.0737	0.009003	0.010986	-0.034637	0.079651	-0.16373	0.10742	0.08255	-0.097198	0.26138	-0.11185	0.012054	-0.004578	-0.046234	-0.008698	0.23224	-0.098572	-0.000458	0
41.991	-0.016785	-0.21652	-0.13657	0.020142	-0.016937	0.18723	0.12497	-0.010223	0.097198	0.017548	0.068207	0.005035	-0.54688	0.013123	0.38132	-0.00473	0.002594	0.061798	-0.2095	0.10101	0.064697	-0.008545	0.27145	-0.14877	-0.028076	0.005188	-0.25757	-0.007172	0.35538	-0.20844	-0.003052	0.00061
41.992	-0.007477	-0.18967	-0.16281	0.019684	-0.008698	0.30991	0.14328	-0.009003	0.097504	0.009918	0.068817	0.003967	0.1416	-0.14832	-0.026398	-0.006409	0.039673	0.007629	-0.23895	0.11612	0.059204	0.016327	0.26108	-0.17807	-0.030518	-0.000916	-0.36346	-0.007324	0.51071	-0.1268	0.00061	0.005035
41.993	-0.00412	-0.17807	-0.14084	0.013885	0.002289	0.29007	0.17197	-0.012512	-0.032501	0.009003	0.013733	0.006409	-0.11841	-0.1976	0.32669	-0.001068	0.070496	0.011902	-0.22385	0.087585	0.061188	-0.031433	0.23575	-0.20462	-0.02594	-0.006104	-0.37888	-0.011444	0.039673	-0.044556	0.001221	0.004578
41.994	-0.007172	-0.1828	-0.13916	0.01297	-0.009766	0.1915	0.16144	-0.009918	-0.037689	0.022125	0.073853	0.011902	-0.097351	-0.12909	0.17334	0.003052	0.10895	0.032501	-0.25696	0.050659	0.068207	-0.084686	0.22308	-0.18753	-0.022278	-0.003357	-0.34409	-0.011139	-0.27512	-0.00946	0.001526	-0.005646
41.995	-0.002747	-0.19531	-0.14038	-0.001526	-0.018768	0.043793	0.18936	-0.009918	0.031281	-0.002747	0.071564	0.004578	0.31052	0.097961	0.39642	0.001526	0.10696	0.017548	-0.35919	0.045166	0.022888	-0.066528	0.28595	-0.18967	-0.045166	-0.006714	-0.2594	-0.010376	-0.004425	0.032959	-0.003357	-0.014343
41.996	-0.011292	-0.18723	-0.042572	-0.012512	0.018005	-0.045929	0.16647	-0.001831	0.032349	-0.040436	0.033722	0.007019	0.9613	0.16983	0.41077	-0.011139	0.14008	-0.016174	-0.40497	0.065155	-0.016785	-0.031433	0.27237	-0.18402	-0.032349	-0.003357	-0.16342	-0.010071	0.13489	0.003204	-0.001068	-0.005493
41.997	-0.011292	-0.18997	-0.049438	-0.001831	0.064545	-0.33691	0.15778	-0.010834	0.027466	-0.009918	0.085602	0.005798	1.5416	0.19852	-0.23575	-0.014801	0.079346	0.011902	-0.31143	0.023804	-0.037537	-0.059967	0.21988	-0.1506	-0.023956	-0.00946	-0.15915	-0.005188	0.30197	-0.013428	0.004272	-0.008698
41.998	-0.005798	-0.21042	-0.11353	-0.004425	0.056	-0.44723	0.1622	-0.00824	0.027924	0.001373	0.1442	0.005646	0.86105	0.17471	-0.24338	-0.014343	-0.007019	0.022125	0.075989	-0.092926	-0.032349	-0.045471	0.18127	-0.17105	-0.005798	-0.009003	-0.15945	-0.007019	0.24948	-0.074615	-0.002747	-0.002899
41.999	-0.001068	-0.22003	-0.13123	0.011292	0.020142	-0.27924	0.17456	0.002441	-0.011292	0.049744	0.054779	0.001221	-0.71472	-0.10819	-0.19806	-0.006409	-0.012665	0.02594	0.021515	-0.020142	-0.031433	-0.065155	0.16434	-0.16739	-0.024109	-0.011444	-0.055847	-0.01236	0.071564	-0.063629	0.007629	0.001831
42	-0.00351	-0.19028	-0.082397	0.003052	0.028839	-0.10452	0.1712	0.001526	-0.039825	-0.013733	-0.25848	0.000305	-0.90744	-0.1712	-0.1445	0.002747	-0.005646	0.005646	-0.00061	-0.0383	-0.037384	-0.04837	0.072632	-0.16556	-0.018158	-0.018158	0.10544	-0.005951	-0.29663	-0.065155	-0.001068	-0.00351
42.001	-0.00885	-0.18875	-0.005188	-0.011444	-0.003357	-0.066071	0.16434	-0.002594	-0.050049	0.013885	-0.16571	0.009308	-0.27496	-0.16373	-0.07782	-0.005341	-0.005798	-0.003967	-0.18494	-0.09079	-0.05249	0.014801	0.041656	-0.18829	-0.017548	-0.010376	0.13336	-0.00412	-0.41458	-0.032501	-0.000153	-0.001678
42.002	-0.017242	-0.20859	0.014343	-0.005188	-0.089722	-0.072327	0.20737	0.005188	-0.036621	0.004578	-0.1059	0.002594	-0.18387	-0.10773	-0.020294	0.020905	-0.040894	-0.005035	-0.30685	-0.14694	-0.042114	0.10712	-0.009766	-0.14328	-0.00946	-0.007019	0.24979	-0.001678	-0.43427	0.016479	0.001678	-0.002289
42.003	-0.005798	-0.21683	-0.027618	0.023193	-0.13809	-0.10849	0.19714	0.005035	0.006561	-0.06073	-0.027313	0.006866	-0.18387	0.066681	0.059204	0.001678	-0.043945	-0.046539	-0.23224	-0.08606	-0.037079	0.12985	-0.052032	-0.0914	-0.026093	-0.008392	0.24765	-0.006866	-0.18906	0.00351	0.011749	-0.003204
42.004	0.003204	-0.23727	-0.12924	0.020752	-0.10666	-0.12253	0.18768	-0.002747	0.1178	-0.031586	-0.055389	0.016632	-0.11475	0.043488	0.04837	0.010376	-0.019226	-0.042877	-0.3772	-0.05661	-0.041351	0.073395	-0.093079	-0.070648	-0.020905	-0.008545	0.29373	-0.010681	0.14969	-0.036621	-0.00061	-0.002136
42.005	0.002136	-0.19363	-0.16663	0.0177	0.11749	-0.075684	0.21835	-0.014954	0.12909	0.024261	-0.035553	-0.002289	-0.14374	0.002747	-0.040741	-0.010681	-0.014191	-0.034485	-0.22171	0.030212	-0.025482	0.047913	-0.15106	-0.075989	-0.027924	-0.007019	-0.25696	-0.002136	0.17334	-0.088196	-0.00351	-0.00351
42.006	0.008698	-0.1796	-0.054932	0.005798	0.14435	0.043335	0.23453	-0.014648	-0.000458	0.076904	-0.02533	-0.000458	-0.16281	-0.04776	0.2504	-0.016327	-0.022125	0.034027	0.023193	0.094604	0.014648	0.033112	-0.12116	-0.041656	-0.032196	-0.010986	-0.42999	-0.010071	0.079803	-0.14923	0.000305	-0.002899
42.007	0.005951	-0.19318	0.008698	0.005493	0.092163	0.037537	0.2066	-0.016174	-0.00946	0.050659	-0.078278	-0.000153	-0.42038	-0.045624	0.37384	-0.002594	-0.032196	0.056	-0.045013	0.10254	0.077667	0.034943	-0.10361	-0.036926	-0.033417	-0.000458	0.13138	-0.00473	0.20187	-0.21362	0.00824	0.005493
42.008	0.012054	-0.20416	-0.001373	-0.0354	0.067749	0.028839	0.21286	-0.006104	0.060272	0.012207	-0.15503	0.008087	-0.26443	-0.014801	0.75867	0.005493	-0.021362	-0.004578	-0.18829	0.035706	0.2356	0.009155	-0.064087	-0.062561	-0.016327	-0.003052	0.034485	-0.002289	-0.020294	-0.24826	0.002747	-0.000305
42.009	0.001068	-0.19882	-0.0177	-0.011597	0.048218	0.016937	0.24872	-0.00946	0.11337	0.024414	-0.10315	0.001221	0.32577	-0.10269	-0.10788	0.010834	-0.00473	0.03067	-0.12802	0.023956	0.24902	0.019989	-0.023041	-0.052948	-0.003052	0.001221	0.043335	-0.001984	-0.16907	-0.17685	0.002747	-0.00412
